# xmcd
#
# Track frame offsets:
#	150
#	9136
#	12106
#	55407
#	100335
#	134783
#	166686
#	224613
#	254892
#	284567
#
# Disc length: 4120 seconds
#
# Revision: 1
# Processed by: cddbd v1.5.2PL0 Copyright (c) Steve Scherf et al.
# Submitted via: audiograbber 1.83.01
#
DISCID=9410160a
DTITLE=Grateful Dead - 70-06-05 Fillmore West, San Francisco CA
DYEAR=1900
DGENRE=
TTITLE0=Cryptical Envelopment
TTITLE1=Drums
TTITLE2=The Other One
TTITLE3=Cryptical Envelopment
TTITLE4=Attics Of My Life
TTITLE5=Hard To Handle
TTITLE6=It's A Man's World
TTITLE7=Uncle John's Band
TTITLE8=St Stephen
TTITLE9=Casey Jones
EXTD=
EXTT0=
EXTT1=
EXTT2=
EXTT3=
EXTT4=
EXTT5=
EXTT6=
EXTT7=
EXTT8=
EXTT9=
PLAYORDER=
